<svg width="20" height="33" viewBox="0 0 20 33" fill="none" xmlns="http://www.w3.org/2000/svg">
<path d="M16.6988 14.0475C18.825 12.15 20 10 20 10C20 10 16.25 3.125 10 3.125C8.7995 3.12913 7.61258 3.37928 6.51251 3.86L7.47501 4.82375C8.28431 4.52894 9.1387 4.3771 10 4.375C12.65 4.375 14.8488 5.835 16.46 7.44625C17.2355 8.22586 17.9306 9.08141 18.535 10C18.4625 10.1087 18.3825 10.2288 18.2913 10.36C17.8725 10.96 17.2538 11.76 16.46 12.5538C16.2538 12.76 16.0388 12.9637 15.8138 13.1613L16.6988 14.0475Z" fill="#8D4337"/>
<path d="M14.1212 11.47C14.4002 10.6898 14.4518 9.84639 14.2702 9.03798C14.0886 8.22957 13.6811 7.48936 13.0952 6.90348C12.5093 6.3176 11.7691 5.91013 10.9607 5.72849C10.1523 5.54685 9.30893 5.59851 8.52874 5.87745L9.55749 6.9062C10.0379 6.83745 10.5277 6.88151 10.9881 7.03491C11.4485 7.18831 11.8668 7.44682 12.21 7.78997C12.5531 8.13312 12.8116 8.55147 12.965 9.01187C13.1184 9.47227 13.1625 9.96207 13.0937 10.4425L14.1212 11.47ZM10.4425 13.0937L11.47 14.1212C10.6898 14.4001 9.84642 14.4518 9.03801 14.2702C8.2296 14.0885 7.48939 13.6811 6.90351 13.0952C6.31763 12.5093 5.91016 11.7691 5.72852 10.9607C5.54688 10.1523 5.59854 9.3089 5.87749 8.5287L6.90624 9.55745C6.83748 10.0378 6.88154 10.5276 7.03494 10.988C7.18834 11.4484 7.44685 11.8668 7.79 12.2099C8.13315 12.5531 8.5515 12.8116 9.0119 12.965C9.4723 13.1184 9.9621 13.1625 10.4425 13.0937Z" fill="#8D4337"/>
<path d="M4.1875 6.83749C3.9625 7.0375 3.74625 7.24 3.54 7.44625C2.76456 8.22586 2.0694 9.0814 1.465 10L1.70875 10.36C2.1275 10.96 2.74625 11.76 3.54 12.5537C5.15125 14.165 7.35125 15.625 10 15.625C10.895 15.625 11.7375 15.4587 12.525 15.175L13.4875 16.14C12.3874 16.6207 11.2005 16.8708 10 16.875C3.75 16.875 0 10 0 10C0 10 1.17375 7.84875 3.30125 5.9525L4.18625 6.83875L4.1875 6.83749ZM17.0575 17.9425L2.0575 2.9425L2.9425 2.0575L17.9425 17.0575L17.0575 17.9425Z" fill="#8D4337"/>
<path d="M6.808 25.512V31H6.024V28.552H3.52V31H2.736V25.512H3.52V27.84H6.024V25.512H6.808ZM8.97888 25.24V25.936H8.19488V25.24H8.97888ZM8.96288 26.912V31H8.21088V26.912H8.96288ZM13.625 31H13.065C13.0277 30.8293 12.993 30.6427 12.961 30.44C12.657 30.8667 12.2357 31.08 11.697 31.08C11.185 31.08 10.7797 30.8907 10.481 30.512C10.1877 30.1333 10.041 29.6133 10.041 28.952V28.864C10.041 28.24 10.185 27.7467 10.473 27.384C10.7663 27.016 11.1743 26.832 11.697 26.832C12.2037 26.832 12.5957 27.032 12.873 27.432V25.24H13.625V31ZM11.833 27.432C11.4757 27.432 11.2117 27.5573 11.041 27.808C10.8757 28.0533 10.793 28.4373 10.793 28.96C10.793 29.4827 10.8783 29.8667 11.049 30.112C11.2197 30.3573 11.481 30.48 11.833 30.48C12.5317 30.48 12.881 29.9733 12.881 28.96C12.881 28.4373 12.793 28.0533 12.617 27.808C12.441 27.5573 12.1797 27.432 11.833 27.432ZM16.5931 26.832C16.9291 26.832 17.2251 26.904 17.4811 27.048C17.7424 27.1867 17.9451 27.3867 18.0891 27.648C18.2331 27.9093 18.3051 28.2133 18.3051 28.56V29.128H15.4491C15.4597 29.56 15.5611 29.8933 15.7531 30.128C15.9451 30.3627 16.2304 30.48 16.6091 30.48C16.9451 30.48 17.1931 30.3813 17.3531 30.184C17.5131 29.9867 17.5931 29.752 17.5931 29.48H18.3051C18.3051 29.8 18.2304 30.08 18.0811 30.32C17.9371 30.56 17.7344 30.7467 17.4731 30.88C17.2171 31.0133 16.9237 31.08 16.5931 31.08H16.5611C15.9851 31.08 15.5291 30.896 15.1931 30.528C14.8624 30.1547 14.6971 29.6587 14.6971 29.04V28.88C14.6971 28.4747 14.7717 28.1173 14.9211 27.808C15.0704 27.4987 15.2837 27.2587 15.5611 27.088C15.8384 26.9173 16.1637 26.832 16.5371 26.832H16.5931ZM16.5531 27.432C16.2491 27.432 16.0011 27.5253 15.8091 27.712C15.6224 27.8987 15.5077 28.176 15.4651 28.544H17.5611V28.448C17.5611 28.144 17.4677 27.8987 17.2811 27.712C17.0997 27.5253 16.8571 27.432 16.5531 27.432Z" fill="#8D4337"/>
</svg>
